# xmcd CD database file
#
# Track frame offsets:
#	150
#	21750
#	39482
#
# Disc length: 841 seconds
#
# Revision: 0
# Processed by: cddbd v1.5.1PL0 Copyright (c) Steve Scherf et al.
# Submitted via: CDex 1.51
#
DISCID=1a034703
DTITLE=氣志團 - 族
DYEAR=2004
DGENRE=J-Pop
TTITLE0=族
TTITLE1=一瞬の夏
TTITLE2=RUN☆BAKURATEN☆RUN
EXTD=YEAR: 2004
EXTT0=
EXTT1=
EXTT2=
PLAYORDER=
